<?xml version="1.0" encoding="UTF-8" standalone="no"?>
<!-- Created with Inkscape (http://www.inkscape.org/) -->

<svg
   xmlns:dc="http://purl.org/dc/elements/1.1/"
   xmlns:cc="http://creativecommons.org/ns#"
   xmlns:rdf="http://www.w3.org/1999/02/22-rdf-syntax-ns#"
   xmlns:svg="http://www.w3.org/2000/svg"
   xmlns="http://www.w3.org/2000/svg"
   xmlns:sodipodi="http://sodipodi.sourceforge.net/DTD/sodipodi-0.dtd"
   xmlns:inkscape="http://www.inkscape.org/namespaces/inkscape"
   width="420mm"
   height="297mm"
   viewBox="0 0 1488.189 1052.3622"
   id="svg2"
   version="1.1"
   inkscape:version="0.91 r13725"
   sodipodi:docname="Geekdom-white-vector.svg"
   inkscape:export-filename="/home/ico/Desktop/My_Documents/Professional/Clients/Geekdom/Naut/Images/Geekdom Graphics/word-white-large-transparent2.png"
   inkscape:export-xdpi="90"
   inkscape:export-ydpi="90">
  <defs
     id="defs4" />
  <sodipodi:namedview
     id="base"
     pagecolor="#888888"
     bordercolor="#666666"
     borderopacity="1.0"
     inkscape:pageopacity="0"
     inkscape:pageshadow="2"
     inkscape:zoom="0.35"
     inkscape:cx="198.18898"
     inkscape:cy="470.1733"
     inkscape:document-units="px"
     inkscape:current-layer="layer3"
     showgrid="false"
     inkscape:window-width="1366"
     inkscape:window-height="724"
     inkscape:window-x="0"
     inkscape:window-y="0"
     inkscape:window-maximized="1" />
  <metadata
     id="metadata7">
    <rdf:RDF>
      <cc:Work
         rdf:about="">
        <dc:format>image/svg+xml</dc:format>
        <dc:type
           rdf:resource="http://purl.org/dc/dcmitype/StillImage" />
        <dc:title></dc:title>
      </cc:Work>
    </rdf:RDF>
  </metadata>
  <g
     inkscape:groupmode="layer"
     id="layer3"
     inkscape:label="Sharp"
     style="display:inline">
    <path
       style="fill:#fefefe"
       d="m 76.872323,673.63034 c -23.80174,-4.60982 -43.959077,-21.37682 -49.261444,-40.97594 -3.211367,-11.87018 -1.352162,-30.6892 4.084779,-41.3465 4.951281,-9.70529 17.948909,-22.05056 23.215802,-22.05056 2.946291,0 2.788531,-0.75817 -0.999108,-4.80154 -9.726233,-10.38286 -11.670824,-26.56636 -4.966222,-41.33042 2.194623,-4.83274 5.95686,-10.16428 8.360531,-11.84788 4.28072,-2.99832 4.199152,-3.22226 -3.97902,-10.924 -12.619316,-11.88414 -17.768438,-23.44651 -17.782486,-39.93069 -0.0175,-20.5752 5.638512,-35.01201 18.920641,-48.29413 14.447294,-14.44731 30.978797,-19.99417 59.589164,-19.99417 18.63069,0 40.10741,4.17251 44.85471,8.71443 1.23194,1.17867 4.12765,-2.41269 7.46904,-9.26328 7.12259,-14.6029 16.33133,-20.80098 30.84727,-20.76212 17.2056,0.0461 20.49475,1.53886 20.46752,9.28929 -0.0128,3.67764 -0.58995,10.11052 -1.28228,14.29522 l -1.25881,7.60861 -16.02821,2.30909 c -21.64666,3.11851 -23.77388,5.49916 -16.73792,18.73199 6.64326,12.49427 7.48352,34.91814 1.92025,51.24542 -5.00826,14.69844 -21.74667,31.22776 -37.47665,37.00846 -14.91845,5.48248 -41.69988,7.79323 -56.08649,4.83925 -9.65884,-1.98322 -11.023975,-1.77283 -14.404569,2.22011 -9.03495,10.67147 -0.865551,23.62378 16.547171,26.23497 5.725479,0.8586 25.831418,2.34756 44.679868,3.3088 39.67337,2.02332 51.16334,5.15886 63.27078,17.26629 10.00258,10.00258 13.56163,21.88721 11.76529,39.28746 -3.3728,32.67013 -29.86799,59.2972 -67.93391,68.27202 -14.58812,3.43944 -52.089865,3.93165 -67.795697,0.88982 z M 146.0956,647.29522 c 23.33079,-7.02152 36.81218,-22.98155 34.76374,-41.15524 -0.57738,-5.12254 -2.84162,-11.29366 -5.03164,-13.71362 -8.5604,-9.45912 -15.13675,-10.93514 -57.9571,-13.00816 -36.737849,-1.77857 -41.761219,-1.61581 -46.528176,1.50765 -8.795344,5.76291 -13.659345,15.87981 -13.668214,28.4292 -0.01366,19.27994 8.343041,30.81487 27.402956,37.82504 10.653159,3.91819 48.146754,3.98893 61.018434,0.11502 z M 135.90805,487.99529 c 13.08452,-6.33409 18.8851,-16.66337 18.69753,-33.2952 -0.26394,-23.40361 -13.91681,-36.72396 -39.62844,-38.6633 -34.989261,-2.63908 -56.458578,25.76289 -42.577954,56.32679 9.007149,19.83297 39.384854,27.30996 63.508864,15.63171 z m 159.13663,94.07825 c -27.00244,-5.73864 -52.64196,-25.93949 -63.76767,-50.24124 -20.2602,-44.25404 -3.02351,-107.62299 35.54549,-130.67967 16.18804,-9.67723 25.55685,-11.73448 49.13009,-10.78813 24.79697,0.99547 40.44622,7.54503 52.14751,21.82489 12.95895,15.81468 16.71286,27.17205 17.77227,53.76949 l 0.94302,23.67512 -14.66038,1.38433 c -8.06319,0.76137 -37.48588,1.39113 -65.38375,1.39948 l -50.72338,0.0149 1.28951,5.86852 c 5.02909,22.88671 16.62906,38.03724 36.68141,47.90896 13.33056,6.56265 15.75902,7.03849 35.68885,6.9931 11.76173,-0.0269 27.91019,-1.34404 35.88546,-2.92724 7.97528,-1.58322 15.05404,-2.32506 15.73054,-1.64854 0.67652,0.67652 0.57217,7.37321 -0.23191,14.8815 -1.43552,13.40478 -1.60409,13.69853 -9.32851,16.25633 -9.84718,3.2607 -64.49927,4.9048 -76.71855,2.30793 z m 55.99461,-125.46522 c -3.51424,-26.02699 -17.20622,-38.80436 -41.55987,-38.78372 -17.94685,0.0149 -29.68269,5.27806 -38.30154,17.17604 -5.29458,7.30894 -12.90758,25.9799 -12.91661,31.67804 -0.001,0.66726 21.17908,0.9371 47.06697,0.59969 l 47.06892,-0.61348 -1.35787,-10.05657 z m 131.67115,125.44352 c -25.96691,-5.50362 -51.29578,-25.02697 -62.25188,-47.98349 -15.99387,-33.5121 -12.15609,-75.95039 9.8691,-109.13275 15.79361,-23.79411 37.40276,-34.80442 68.46511,-34.88444 34.05363,-0.0877 54.07889,11.19613 67.21172,37.87265 6.43271,13.06663 7.0887,16.27078 7.77854,37.99349 l 0.75337,23.72342 -14.62443,1.38098 c -8.04344,0.75951 -36.95151,1.38776 -64.24016,1.39611 l -49.61575,0.0149 0,6.06117 c 0,8.58987 11.79239,31.11481 19.86344,37.94162 18.87888,15.96854 43.38569,20.51054 80.27742,14.8783 12.2372,-1.86828 22.86846,-3.39685 23.62503,-3.39685 0.75655,0 0.65751,5.04161 -0.2201,11.20356 -0.87759,6.16197 -1.66574,12.72297 -1.75142,14.58003 -0.0896,1.94175 -3.5562,4.50102 -8.15833,6.02306 -10.00126,3.3076 -64.57326,4.95789 -76.98166,2.32797 z m 56.27618,-125.4441 c -2.22449,-15.68296 -9.4885,-28.52866 -19.30721,-34.14291 -7.22377,-4.1305 -11.05203,-4.78541 -24.90216,-4.26004 -14.23372,0.53993 -17.5668,1.4647 -25.58134,7.09752 -9.42032,6.62084 -19.45205,23.12188 -22.00012,36.18753 l -1.24852,6.40202 47.23285,-0.61406 47.23283,-0.61406 -1.42633,-10.056 z M 834.4459,582.32999 c -36.99664,-12.19722 -60.67744,-52.58014 -56.91738,-97.06143 3.66347,-43.33886 26.43996,-77.74846 59.60836,-90.05342 16.66589,-6.1828 52.43341,-5.8746 65.37731,0.56329 l 9.38304,4.66684 -1.14966,-44.70158 -1.14963,-44.70158 20.08288,0 20.08291,0 -1.64116,5.86854 c -2.15078,7.69088 -2.13401,229.93076 0.0192,248.61218 l 1.65993,14.40456 -15.96781,0 -15.96779,0 -1.42494,-7.59561 -1.42494,-7.59559 -4.56686,4.29033 c -9.96278,9.35954 -24.61368,13.73627 -48.26093,14.41716 -12.32389,0.35485 -24.80785,-0.14639 -27.74211,-1.11369 z m 62.30321,-31.32035 c 5.34227,-1.82033 11.8597,-5.59445 14.48312,-8.38695 4.75926,-5.066 4.76639,-5.19136 3.20389,-56.30296 -0.94652,-30.96115 -2.53147,-53.16216 -4.00656,-56.12092 -5.43476,-10.90102 -37.20344,-15.95819 -57.27834,-9.11797 -12.66755,4.31626 -24.29847,15.7494 -31.1943,30.66386 -7.80568,16.8823 -9.11848,49.23536 -2.69008,66.29639 5.65955,15.02061 14.81045,26.05737 26.33454,31.7617 11.25906,5.57311 36.57995,6.17057 51.14773,1.20685 z m 141.49469,30.17891 c -15.539,-3.85039 -28.0346,-10.95345 -39.58075,-22.49965 -12.44579,-12.44578 -18.48789,-23.88882 -22.42724,-42.47457 -8.06051,-38.02935 1.67581,-77.26451 25.18369,-101.4843 l 10.5393,-10.85847 -1.5121,-48.54874 c -0.8316,-26.70178 -2.3377,-48.54872 -3.3468,-48.54872 -1.0092,0 -3.4079,-2.40076 -5.3305,-5.33502 -3.23813,-4.9421 -3.23813,-5.72797 0,-10.67005 4.0193,-6.13414 12.0353,-7.0622 17.1159,-1.98158 3.9823,3.98223 4.2522,8.06939 0.8887,13.45521 -2.0241,3.24107 -0.7458,8.01028 7.1495,26.67494 l 9.6142,22.72822 10.0634,-22.84664 c 8.5299,-19.36521 9.6878,-23.54848 7.5984,-27.45239 -5.4889,-10.25621 0.8959,-19.90384 11.4237,-17.26152 7.8717,1.97567 9.841,10.67204 3.8587,17.0399 l -4.4951,4.78483 6.5473,24.43967 c 3.601,13.44181 6.8067,24.69968 7.1238,25.0175 0.3171,0.31781 7.4087,-10.02625 15.7591,-22.98682 13.5818,-21.08019 14.9327,-24.11309 12.8126,-28.76607 -1.8893,-4.14657 -1.6493,-6.30102 1.1831,-10.62384 3.8218,-5.8329 7.7266,-6.7125 14.2648,-3.21334 6.0003,3.21125 5.8045,16.9581 -0.2641,18.54507 -4.2038,1.09929 -4.328,2.10332 -2.8993,23.43212 0.821,12.25599 2.0771,25.12358 2.7914,28.59469 l 1.2987,6.31107 18.5983,-17.24407 c 17.0685,-15.8258 18.4936,-17.76672 17.3272,-23.59886 -2.2757,-11.37824 9.5174,-19.17655 17.2724,-11.42154 4.7655,4.76555 4.1496,12.91893 -1.2624,16.70963 -2.5387,1.77817 -5.2337,2.85114 -5.9889,2.38439 -0.7553,-0.46677 -3.2941,11.0408 -5.6418,25.57234 -3.0128,18.6473 -3.5249,25.98679 -1.7406,24.94524 1.3905,-0.81165 10.7883,-7.7177 20.884,-15.34679 15.1094,-11.41777 18.3636,-14.9003 18.3995,-19.6904 0.029,-3.82143 1.8753,-7.01948 5.3787,-9.31498 4.9421,-3.23817 5.728,-3.23817 10.6701,0 9.3314,6.11418 4.5738,20.46935 -6.7839,20.46935 -3.2388,0 -11.2883,10.50324 -32.3004,42.1467 -27.8808,41.98725 -27.979,42.17897 -25.9787,50.68273 3.0735,13.06622 2.4834,45.68375 -1.0735,59.33977 -13.3307,51.17987 -62.8641,81.34777 -113.1204,68.89499 z m 41.7791,-27.17109 c 12.4401,-3.72715 22.4003,-13.33443 30.1475,-29.07931 6.7247,-13.66697 7.0309,-15.36457 7.0107,-38.86972 -0.019,-22.5356 -0.5311,-25.6868 -6.1575,-37.91078 -10.0673,-21.8724 -27.4704,-34.65926 -47.1716,-34.65926 -35.1653,0 -60.3489,40.87394 -52.6926,85.52199 7.3629,42.93765 35.1212,65.10649 68.8635,54.99708 z m -472.33782,-61.3049 c 0.81069,-58.48618 0.32589,-102.46492 -1.47178,-133.5112 -1.47436,-25.46302 -2.34156,-46.58256 -1.92709,-46.93232 0.41449,-0.34976 9.20286,-1.20561 19.52973,-1.90187 l 18.77614,-1.26591 -1.51299,79.28819 -1.51301,79.28818 7.00242,-4.43362 c 10.68367,-6.76444 50.2701,-44.43553 57.98763,-55.18198 l 6.84069,-9.5255 22.04536,0 c 12.74439,0 22.04533,0.86901 22.04533,2.05974 0,5.77161 -33.68363,36.25208 -64.1567,58.05568 l -16.14147,11.54931 9.3952,7.38134 c 20.49444,16.10144 85.84104,92.6137 85.84104,100.50857 0,1.00992 -10.80906,1.83622 -24.02016,1.83622 l -24.02019,0 -2.62637,-5.86854 c -5.91463,-13.21594 -59.72825,-76.36821 -73.32582,-86.05054 l -6.56346,-4.67356 1.55652,48.29631 1.5565,48.29633 -18.25322,0 -18.25321,0 1.20891,-87.21483 z m 586.45772,62.14021 c 2.8522,-44.58041 1.8813,-106.19382 -2.072,-131.47506 -1.993,-12.74572 -3.2196,-23.57817 -2.7257,-24.07211 1.1727,-1.17261 24.6486,-5.00877 30.7496,-5.02473 4.0582,-0.0107 4.9265,1.4839 6.129,10.54893 l 1.401,10.56124 7.7421,-6.19018 c 4.2581,-3.40461 13.3467,-8.74571 20.1968,-11.86909 11.3751,-5.18655 14.2427,-5.60138 33.0772,-4.78508 23.4641,1.01694 37.0903,5.82838 46.889,16.55656 l 5.9576,6.52279 7.362,-5.51231 c 16.9234,-12.67163 27.6566,-16.57752 48.2207,-17.54792 31.7405,-1.4978 51.4469,7.95314 61.3962,29.44484 4.1892,9.04921 4.4836,13.87968 5.1051,83.7599 l 0.6595,74.15684 -19.347,0 -19.347,0 1.5859,-15.47159 c 0.8723,-8.50935 1.5992,-38.99902 1.6154,-67.7548 0.026,-46.52569 -0.3974,-53.06548 -3.8466,-59.38647 -8.4127,-15.41726 -37.5798,-20.2818 -58.6504,-9.78186 -21.1532,10.54109 -20.3237,6.85974 -19.0717,84.6399 l 1.0906,67.75482 -19.0434,0 -19.0434,0 1.6542,-28.27563 c 0.9099,-15.5516 1.6654,-45.56111 1.679,-66.68782 0.021,-33.0702 -0.5223,-39.512 -3.9083,-46.3204 -10.5981,-21.31045 -49.9165,-22.74531 -73.6785,-2.68872 l -7.1891,6.06803 1.567,68.95228 1.567,68.95226 -19.663,0 -19.6631,0 1.6043,-25.07462 z"
       id="path3353"
       inkscape:connector-curvature="0" />
  </g>
</svg>
