<?xml version="1.0" encoding="UTF-8" standalone="no"?>
<!-- Created with Inkscape (http://www.inkscape.org/) -->

<svg
   xmlns:dc="http://purl.org/dc/elements/1.1/"
   xmlns:cc="http://creativecommons.org/ns#"
   xmlns:rdf="http://www.w3.org/1999/02/22-rdf-syntax-ns#"
   xmlns:svg="http://www.w3.org/2000/svg"
   xmlns="http://www.w3.org/2000/svg"
   xmlns:sodipodi="http://sodipodi.sourceforge.net/DTD/sodipodi-0.dtd"
   xmlns:inkscape="http://www.inkscape.org/namespaces/inkscape"
   width="210mm"
   height="297mm"
   viewBox="0 0 744.09448819 1052.3622047"
   id="svg2"
   version="1.1"
   inkscape:version="0.91 r13725"
   sodipodi:docname="up-neg-crown.svg"
   inkscape:export-filename="/home/ico/Desktop/My_Documents/Professional/Clients/Geekdom/Naut/Images/Geekdom Graphics/black-crown.svg.png"
   inkscape:export-xdpi="90"
   inkscape:export-ydpi="90">
  <defs
     id="defs4" />
  <sodipodi:namedview
     id="base"
     pagecolor="#888888"
     bordercolor="#666666"
     borderopacity="1.0"
     inkscape:pageopacity="0"
     inkscape:pageshadow="2"
     inkscape:zoom="0.9899495"
     inkscape:cx="315.61"
     inkscape:cy="531.44041"
     inkscape:document-units="px"
     inkscape:current-layer="layer1"
     showgrid="false"
     inkscape:window-width="1366"
     inkscape:window-height="724"
     inkscape:window-x="0"
     inkscape:window-y="0"
     inkscape:window-maximized="1" />
  <metadata
     id="metadata7">
    <rdf:RDF>
      <cc:Work
         rdf:about="">
        <dc:format>image/svg+xml</dc:format>
        <dc:type
           rdf:resource="http://purl.org/dc/dcmitype/StillImage" />
        <dc:title></dc:title>
      </cc:Work>
    </rdf:RDF>
  </metadata>
  <g
     inkscape:label="Layer 1"
     inkscape:groupmode="layer"
     id="layer1">
    <path
       style="fill:#a5a7aa;fill-opacity:1"
       d="M 481.58967,784.84334 C 465.68449,763.21246 440.95582,738.48036 414.23259,717.47693 328.63171,650.198 222.51483,621.47414 107.60927,634.4797 c -14.725909,1.66676 -40.465566,5.91452 -53.619814,8.84876 -5.248376,1.17072 -9.730936,1.94512 -9.961256,1.72087 C 43.459256,644.49538 33.97636,330.6809 34.24028,321.14094 l 0.209632,-7.58131 41.711184,96.30217 c 22.941162,52.96618 41.958024,96.30004 42.259684,96.29742 0.30173,-0.002 18.91716,-40.84935 41.36775,-90.77056 22.45058,-49.92123 41.05848,-90.90958 41.35087,-91.0852 0.29233,-0.17551 12.14328,44.19091 26.33529,98.5923 14.19201,54.40142 26.1008,99.47171 26.46396,100.15621 0.77073,1.45267 -4.53636,8.91082 67.24094,-94.49523 l 54.07418,-77.9021 0.60836,3.78337 c 0.3346,2.08085 5.17458,48.63545 10.75552,103.45465 5.58095,54.81921 10.41924,100.34319 10.75178,101.16436 0.46522,1.14883 17.96234,-15.09875 75.88694,-70.46763 41.40528,-39.57838 75.42147,-71.82385 75.59154,-71.65659 0.16994,0.16716 -7.21193,45.9377 -16.40436,101.71209 -9.19246,55.77436 -16.53359,101.58495 -16.31363,101.8013 0.21993,0.21633 0.92105,-0.006 1.55791,-0.49451 9.5177,-7.29778 175.9924,-132.43001 176.86589,-132.94282 0.66897,-0.39278 -4.07493,7.07512 -10.54196,16.59526 -12.77954,18.81287 -196.60927,288.04541 -196.88495,288.35289 -0.0927,0.10339 -2.58438,-3.09783 -5.53726,-7.11367 z M 705.49706,483.10616 c -11.37873,-5.84687 -14.37071,-20.89864 -6.01493,-30.25934 5.17583,-5.79831 12.5993,-8.26387 19.7798,-6.56952 6.30803,1.48846 11.09804,5.2046 13.94046,10.8151 3.88322,7.66486 2.86115,15.28743 -2.89132,21.56324 -6.6933,7.30219 -16.01175,8.97351 -24.81401,4.45052 z M 554.28953,410.17789 c -5.52487,-2.56271 -7.9337,-5.03015 -10.51575,-10.77163 -2.30965,-5.13576 -2.01756,-10.84635 0.83462,-16.31766 6.51762,-12.50266 23.89053,-14.33834 33.52725,-3.54264 3.69732,4.14195 5.06692,8.60346 4.59813,14.97823 -0.50914,6.92359 -3.92833,11.84623 -10.61454,15.28189 -6.14195,3.15598 -11.5827,3.26946 -17.82971,0.37181 z M 381.61557,339.89735 c -13.94724,-4.58771 -22.83487,-16.70056 -22.62926,-30.84119 0.18115,-12.45501 6.87466,-22.79647 18.35254,-28.35441 5.52784,-2.67673 6.77131,-2.9281 14.25455,-2.8817 10.16655,0.0632 16.37991,2.54794 23.23788,9.2935 6.82374,6.71191 9.45424,12.93054 9.47871,22.40837 0.0182,6.80834 -0.29385,8.24358 -2.93388,13.51826 -7.4079,14.80084 -24.2736,21.95137 -39.76054,16.85717 z M 198.37522,313.51878 c -8.76941,-2.76076 -15.45941,-13.16838 -13.89892,-21.6225 1.37051,-7.42496 5.21823,-12.28108 12.19639,-15.39282 5.6806,-2.53314 11.31075,-2.3804 17.11435,0.46424 5.55361,2.72214 8.87962,6.63688 10.70366,12.59836 4.58335,14.97963 -10.54462,28.85473 -26.11548,23.95272 z M 23.089904,304.06452 C 13.09472,299.60742 8.7075601,290.5443 11.678792,280.49111 c 4.408944,-14.91758 23.50244,-19.34543 34.254816,-7.94375 3.885016,4.1196 5.62324,8.36112 5.62012,13.71402 -0.0091,14.35604 -15.069288,23.77612 -28.463824,17.80314 z"
       id="path3613"
       inkscape:connector-curvature="0"
       inkscape:export-xdpi="90"
       inkscape:export-ydpi="90" />
  </g>
</svg>
